<svg xmlns="http://www.w3.org/2000/svg" width="20.888888888888914" height="20.888888888888914"><rect id="backgroundrect" width="100%" height="100%" x="0" y="0" fill="none" stroke="none" class="" style=""/>
    <defs>
        <filter id="a" width="126.3%" height="150.1%" x="-13.2%" y="-21.7%" filterUnits="objectBoundingBox">
            <feOffset in="SourceAlpha" result="shadowOffsetOuter1"/>
            <feGaussianBlur in="shadowOffsetOuter1" result="shadowBlurOuter1" stdDeviation="25"/>
            <feColorMatrix in="shadowBlurOuter1" result="shadowMatrixOuter1" values="0 0 0 0 0 0 0 0 0 0 0 0 0 0 0 0 0 0 0.2 0"/>
            <feMerge>
                <feMergeNode in="shadowMatrixOuter1"/>
                <feMergeNode in="SourceGraphic"/>
            </feMerge>
        </filter>
    </defs>
    
<g class="currentLayer" style=""><title>Layer 1</title><path fill="#0076FF" fill-rule="evenodd" stroke="#0076FF" d="M19.187442749023432,13.884999999999998 L9.39444274902344,4.981000000000002 c-1.11,-1.009 -2.91,-1.009 -4.019,0 c-1.11,1.009 -1.11,2.644 0,3.653 l8.54,7.763 l0.501,-0.457 l-8.539,-7.7620000000000005 c-0.8320000000000002,-0.7570000000000002 -0.8320000000000002,-1.984 0,-2.74 c0.8330000000000002,-0.7570000000000002 2.182,-0.7570000000000002 3.014,0 l9.795,8.904 c1.387,1.26 1.387,3.306 0,4.566 c-1.387,1.262 -3.636,1.262 -5.023,0 L2.6124427490234368,8.863 c-1.943,-1.766 -1.943,-4.628 0,-6.394 C4.5524427490234345,0.7040000000000006 7.701442749023435,0.7040000000000006 9.64444274902344,2.469999999999999 l8.539,7.763 l0.502,-0.456 l-8.54,-7.763 c-2.219,-2.018 -5.818,-2.017 -8.037,0 c-2.22,2.019 -2.219,5.29 0.0010000000000000005,7.308 l11.05,10.044 c1.665,1.513 4.364,1.513 6.028,0 c1.665,-1.513 1.665,-3.966 0,-5.48 " filter="url(#a)" id="svg_1" class=""/></g></svg>