<svg xmlns="http://www.w3.org/2000/svg" width="13.714285714285722" height="15.48979591836735" style=""><rect id="backgroundrect" width="100%" height="100%" x="0" y="0" fill="none" stroke="none" class="" style=""/>
    <defs>
        <filter id="a" width="248.5%" height="184.6%" x="-73.8%" y="-42.3%" filterUnits="objectBoundingBox">
            <feOffset in="SourceAlpha" result="shadowOffsetOuter1"/>
            <feGaussianBlur in="shadowOffsetOuter1" result="shadowBlurOuter1" stdDeviation="25"/>
            <feColorMatrix in="shadowBlurOuter1" result="shadowMatrixOuter1" values="0 0 0 0 0 0 0 0 0 0 0 0 0 0 0 0 0 0 0.2 0"/>
            <feMerge>
                <feMergeNode in="shadowMatrixOuter1"/>
                <feMergeNode in="SourceGraphic"/>
            </feMerge>
        </filter>
    </defs>
    
<g class="currentLayer" style=""><title>Layer 1</title><path fill="#4A4A4A" fill-rule="evenodd" d="M6.533877186775207,11.07471634763479 l-2.563,-1.48 a0.48700000000000015,0.48700000000000015 0 0 1 -0.24300000000000008,-0.42200000000000015 v-3.01 L0.22887718677520752,4.17871634763479 v6.827 c0,0.29000000000000015 0.15500000000000008,0.558 0.406,0.7030000000000003 l5.899,3.406 v-4.04 zm3.456,-4.914 v3.013 a0.48700000000000015,0.48700000000000015 0 0 1 -0.24300000000000008,0.42100000000000015 L7.17887718677521,11.076716347634793 V15.116716347634792 l5.9030000000000005,-3.408 a0.811,0.811 0 0 0 0.406,-0.7030000000000003 V4.176716347634795 l-3.5,1.984 zm-5.862,-0.553 l2.487,-1.436 a0.48800000000000016,0.48800000000000016 0 0 1 0.48700000000000015,0 l2.465,1.423 l3.534,-2 l-5.837,-3.37 a0.81,0.81 0 0 0 -0.811,0 l-5.844,3.375 l3.519,2.008 z" filter="url(#a)" id="svg_1" class=""/></g></svg>